<?xml version="1.0" encoding="UTF-8"?>
<!DOCTYPE svg PUBLIC "-//W3C//DTD SVG 1.1//EN" "http://www.w3.org/Graphics/SVG/1.1/DTD/svg11.dtd">
<!-- Creator: CorelDRAW -->
<svg xmlns="http://www.w3.org/2000/svg" xml:space="preserve" width="200mm" height="150mm" version="1.1" style="shape-rendering:geometricPrecision; text-rendering:geometricPrecision; image-rendering:optimizeQuality; fill-rule:evenodd; clip-rule:evenodd"
viewBox="0 0 20000 15000"
 xmlns:xlink="http://www.w3.org/1999/xlink"
 xmlns:xodm="http://www.corel.com/coreldraw/odm/2003">
 <defs>
  <style type="text/css">
   <![CDATA[
    .fil0 {fill:#FAFAFA}
   ]]>
  </style>
 </defs>
 <g id="Warstwa_x0020_1">
  <metadata id="CorelCorpID_0Corel-Layer"/>
  <g id="_2429361737456">
   <path class="fil0" d="M12601.9 9586.5c-1068.78,-21.34 -2330.05,-0.57 -3413.6,-0.57 -1042.85,0 -2424.1,-27.27 -3440.06,1.48 -345.53,9.78 -816.82,95.31 -874.52,-265.68 466.41,-3.85 937.73,-13.88 1403.76,-5.41 465.06,8.46 913.21,50.26 1356.53,-40.78l6.4 -185.65c-798.02,-140.62 -1915.94,-30.11 -2766.26,-47.97 45.24,-176.84 127.9,-230.41 323.09,-261.56l1715.32 -0.85c1878.18,0 3848.89,20.04 5715.8,-0.32 343.19,-3.74 821.37,-90.47 872.09,263.78 -664.21,21.27 -2291.83,-83.24 -2817.32,60.09 -37.71,306.14 272.77,223.3 523.47,218.61 711.72,-13.33 1604.58,-27.3 2293.11,1.53 -87.25,373.02 -533.62,270.57 -897.81,263.3zm-6808.96 -1078.77c52.17,-322.28 451.43,-251.04 775.62,-251.01l2936.44 0.63c-10.05,336.64 9.52,231.02 -766.56,237.97l-2945.5 12.41zm7060.18 -1442.14c149.58,-9.9 309.11,-43.43 414.81,62.59 90.28,90.55 78.48,273.94 0.34,352.1 -53.29,53.31 -315.55,139.74 -404.62,51.98 -81.17,-79.98 -31.65,-348.09 -10.53,-466.67zm0.21 -1164.12c208.43,-6.8 477.1,-22.02 480.41,225.74 3.47,260.2 -221.16,275.59 -466.19,257.53l-14.22 -483.27zm-1594.52 304.27c-1.34,-123.67 22.03,-158.56 152.3,-158.56 130.03,0 305.61,-5.13 397.3,52.71 -17.25,157.6 -72.98,151.45 -237.78,150.97 -103.33,-0.31 -229.63,-3.01 -311.82,-45.12zm-5099.72 -1310.56c26.76,340.38 38.6,732.55 9.04,1072.45 -28.36,326.23 -172.69,567.72 -524.78,553.28 -624.48,-25.62 -481.36,-1114.65 -458.19,-1638.93l973.93 13.2zm8122.87 -277.16c0,294.95 -91.28,833.48 -475.2,567.42 -198.44,-137.53 -148.47,-677.94 -143.21,-964.74 5.5,-299.81 -22.37,-783.38 362.34,-734.03 338.67,43.44 256.07,732.5 256.07,1131.35zm-1018.51 -18.93c-49.44,-112.25 -29.07,-335.76 -28.14,-481.8l166.37 -3.94 -4.44 481.38 -133.79 4.36zm-6809.74 -60.45c67.81,-48.96 121.62,-41.74 220.09,-40.65 79.72,0.88 158.96,1.78 238.76,1.93 149.96,0.28 299.91,0.6 449.86,0.86 732.31,1.26 2136.95,-32.86 2722.95,10.13 -160.09,182.45 -577.13,108.73 -844.15,107.26l-2381.76 -2.34c-75.34,-1.36 -157.27,-0.22 -231.68,-3.89 -118.93,-5.87 -130.46,6.4 -174.07,-73.3zm-1264.76 54.82c-31.22,-193.3 -33.34,-640.93 13.14,-838.84 62.33,-265.39 194.51,-396.38 471.02,-426.37 64.16,-6.96 392.08,-15.82 437.67,1.97 132.83,51.85 50.3,1130.18 42.6,1272.48l-964.43 -9.24zm1262.23 -425.29c80.16,-103.23 328.85,-60.49 461.38,-61.47l1428.95 -10.47c319.88,2.16 663.05,22.76 979.65,9.03 274.96,-11.93 571.48,-73.62 779.83,102.35 -411.51,58.7 -2110.03,14.43 -2765.03,17.01 -154.79,0.62 -804.34,49.08 -884.78,-56.45zm7.11 -822.54c326.04,-74.33 2384.19,-13.45 2915.24,-23.24 769.02,-14.19 2112.19,-95.05 2812.86,44.12 191.83,38.1 393,161.86 483.69,257.04 27.58,28.95 126.19,159.26 156.81,212.92 426.71,747.75 -189.72,1259.78 -220.01,1314.92 -68.89,125.45 -66.31,2585.98 -36.92,2888.02 209.26,167.53 293.97,75.33 308.99,468.49l-3101.11 -7.34c39.73,-631.29 573.36,-392.73 1223.09,-455.47l216.41 -1503.87c350.74,-79.26 814.79,117.66 876.33,-340.47 60.37,-449.46 -398.34,-425.35 -769.64,-425.38l-5.26 -350.53c-231.45,-114.26 -4183.28,23.72 -4876.29,-46.26l0.61 -489.09c750.65,-4.01 1520.58,-27.2 2268.89,-8.79 564.35,13.89 1746.3,193.36 1724.21,-527.27 -5.59,-182.24 -87.93,-303.16 -188.02,-398.37 -222.67,-211.8 -1246.85,-116.73 -1562.65,-115.25 -744.91,3.48 -1484.26,6.01 -2229.26,-9.2 -31.36,-116.92 -19.66,-379.85 2.03,-484.98zm4520.55 -1620.73l657.05 -0.11c48.61,148.99 14.08,1099.13 12.32,1331.44l-679.24 -7.47 9.87 -1323.86zm-654.36 963.92l370.49 -0.52 -1.76 367.32 -364.31 -9.34 -4.42 -357.46zm-955.15 -963.8l672.98 12.2 -2.17 1316.66 -667.74 -4.37 -3.34 -1104.15 0.27 -220.34zm-2890.8 1331.53c47.03,-228.64 167.11,-304.34 404.49,-346 274.81,-48.23 1894.91,-26.4 2210.35,-18.07l2.31 364.07 -2617.15 0zm4696.65 -1823.93l281.14 12.45 4.64 199.17 -300.75 -3.32 14.97 -208.3zm-1605.57 9.11c82.73,-44.98 189.87,-23.03 272.65,6.87l12.74 206.56 -302.37 -11.52 16.98 -201.91zm-486.95 1156.43c-579.02,26.78 -1164.93,3.72 -1746.88,3.29 -793.82,-0.57 -882.76,61.32 -1177.11,642.36 -475.95,12 -887.8,3.71 -1095.99,306.09 -222.87,323.7 -159.53,786.85 -157.33,1241.66 2.24,461.07 -19.2,945.43 0.81,1403.21 21.8,498.82 251.27,640.23 626.27,793.87 10.41,195.19 8.51,412.83 4.26,608.96 -3.73,172.88 -62.38,381.23 52.77,498.29 242.17,82.99 240.76,-185.46 235.72,-393.26 -6.2,-255.27 -14.64,-452.3 7.18,-710.09 229.23,-117.57 375.92,-158.08 500.76,-373.29 126.69,-218.38 107.69,-468.29 125.9,-742.54l4558.77 0.22 -258.84 2098.96c-242.05,14.48 -489.39,-19.03 -720.79,20.65 -232.44,39.86 -248.83,167.63 -572.44,190.76 -493.57,35.27 -1023.4,18.79 -1521.25,17.95 -488.49,-0.82 -987.36,-19.16 -1481.77,-20.22 -948.77,-2.05 -771.35,234.02 -1005.55,521.06 -560.79,24.29 -958.18,150.27 -889.71,788.87 64.14,598.36 613.59,586.55 1075.63,564.99 1097.24,-51.2 2302.9,-2.24 3412.92,-2.24 564.52,0 1129.04,-0.01 1693.57,0 563.36,0.01 1162.59,-29.04 1720.87,2.83 520.79,29.73 1104.04,67.51 1283.52,-358.91 91.12,-216.49 68.43,-497.08 -30.53,-686.38 -167.94,-321.25 -321.88,-169.48 -539.36,-333.88 -60.09,-122.71 -54.34,-242.66 -118.42,-357.14 -56.8,-101.47 -168.39,-175.57 -185.32,-290.51 1035.82,-37.29 769.54,-782.2 525.01,-949.08 -237.77,-162.25 -401.01,-46.27 -534.12,-123.2 8.64,-121.98 79.11,-90.32 206.85,-95.23 309.74,-11.89 533.03,-208.61 535.44,-513.18 4.83,-610.86 -705.03,-497.58 -770.86,-582.38 -61.11,-156.46 73.57,-328.07 143.25,-435.71 113.19,-174.85 113.18,-254.01 400.6,-243.03 56.17,226.1 71.32,387.09 224.95,489.15 148.33,98.55 348.36,158.08 561.95,93.51 402.19,-121.59 369.55,-637.8 368.58,-1094.71 -1.04,-488.95 64.26,-952 -339.78,-1124.5 -210.41,-89.83 -407.95,-51.39 -568.99,64.28 -156.14,112.15 -210.34,243.57 -237.65,504.31 -534.09,2.57 -100.33,-62.6 -635.44,-475.2 -208.33,-160.63 -468.26,-281.85 -824.18,-291.99 -12.08,-307.71 -0.19,-593.8 1.89,-899.71 4.93,-725.22 -81.54,-537 -175.26,-721.5 -139.78,-275.15 121.15,-482.44 -430.58,-481.71 -461.58,0.61 -416.68,66.68 -465.38,475.47 -78.65,98.92 6.46,-11.26 -73.19,57.4 -148.69,128.16 -103.28,758.68 -96.99,935.6 -81.6,-4.24 -157.03,-11.99 -240.99,-18.14 -137.83,-10.11 -152.43,20.08 -144.46,-128.62 59.36,-1107.27 -140.07,-550.22 -181.47,-959.1 -21.03,-207.65 -39.77,-303.08 -230.19,-347.77 -682.78,-160.23 -599.86,321.41 -638.49,438.26 -55.58,168.09 -162.37,34.77 -173.48,405.24 -5.84,195.07 2.6,387.29 -4.68,585.98z"/>
   <path class="fil0" d="M5695.31 11577.32c-150.08,-0.6 -72.01,6.4 -104.37,34.89 49.67,38.95 121.08,56.86 188.92,88.05 -24.22,262.23 -147.22,626.27 -220.01,879.18 -29.47,102.38 -126.28,522.97 -211.03,582.69 -56.72,39.97 -126.37,28.95 -194.02,82.51 85.68,46.88 173.75,47.73 274.85,45.94 88.41,-1.57 190.88,-5.43 263.19,-45.94 -47.97,-47.42 -91.22,-55.46 -160.51,-76.76 15.63,-212.98 222.04,-1018.26 315.96,-1157.37 58.06,233.51 130.88,1102.54 165.71,1205.67 15.76,46.67 8.35,26.34 25.32,49.55 93.34,-31.8 86.33,-58.58 144.36,-141.18 190.32,-270.9 665.57,-938.7 829.36,-1118.89 -35.3,207.08 -131.95,483.64 -193.12,696.26 -137.07,476.38 -76.55,446.14 -364.58,516.89 39.09,33.05 30.35,43.56 172.8,47.23l365.74 6.65c34.3,-0.21 65.29,-0.71 98.72,-6.82 57.78,-10.57 25.95,-0.81 58.49,-21.23l-54.59 -27.4c-7.32,-3.09 -30.66,-11.44 -38.39,-14.27 -38.63,-14.15 -65.73,-20.98 -94.1,-32.24 2.48,-263.75 139.65,-640.8 211.94,-879.74 43.16,-142.67 83.62,-294.72 125.7,-430.71 89.1,-287.96 143.22,-123.02 265.67,-256.29 -75.22,-46.82 -214.11,-50.63 -309.71,-28.94 -215.38,48.86 -853.93,1165.29 -1066.32,1327.69l-164.03 -1319.84 -331.95 -5.58z"/>
   <path class="fil0" d="M1847.43 11611.6l153.15 71.78c2.92,256.35 -135.94,647.66 -204.69,890.04 -39.69,139.91 -79.72,271.72 -121.64,407.07 -91.76,296.28 -87.66,120.35 -255.26,260.04 92.85,45.92 520.67,59.54 622.14,4.11 -53.19,-62.24 -68.24,-53.92 -157.19,-77.28 8.74,-226.01 122.83,-522.11 177.75,-743.39l769.19 6.87c-270.06,1178.71 -322.18,539.89 -410.01,833.41 136.25,11.56 522.87,35.21 624.76,-19.61 -57.1,-72.16 -55.85,-44.17 -156.66,-70.96 12.56,-278.16 142.52,-623.18 217.55,-876.83 266.75,-901.76 140.87,-445.91 398.71,-692.86l-40.6 -17.14c-25.42,-7.74 -477.03,-68.04 -619.17,26.37l167.5 79.22c10.93,171.8 -114.54,467.74 -142.47,652.28l-774.65 0c197.6,-838.09 211.68,-565.29 394.41,-740.73 -80.98,-52 -505.88,-42.38 -576.02,-25.89 -71.04,16.71 -44.83,14.81 -66.8,33.5z"/>
   <path class="fil0" d="M14384.97 13155.14c18.78,-294.79 173.59,-755.66 255.65,-1046.75 59.27,-210.23 80.86,-425.99 211.24,-449.22 602.1,-107.23 828.91,655.07 466.88,1179.63 -159.14,230.58 -516.23,402.15 -933.77,316.34zm-47.85 -1551.15l160.14 86.37c8.55,91.97 -278.08,1169.87 -328.86,1295.14 -105.28,259.75 -205.49,155.62 -280.29,286.34 668.55,4.92 1527.09,137.83 1821.3,-703.71 138.34,-395.72 -21.68,-742.46 -270.73,-891.02 -169.63,-101.19 -923.52,-181.56 -1101.56,-73.12z"/>
   <path class="fil0" d="M4439.04 11626.45c494.51,-101.95 463.66,480.84 351.76,846.02 -106.39,347.23 -308.23,671.78 -627.31,751.87 -725.42,182.08 -465.02,-1445.21 275.55,-1597.89zm650.44 771.4c306.16,-1243.76 -1352.6,-1044.68 -1604.88,65.36 -270.27,1189.22 1320.93,1088.13 1604.88,-65.36z"/>
   <path class="fil0" d="M17756.31 11618.97c759.78,-206.79 448.12,1428.93 -259.16,1603.21 -456.12,112.39 -493.41,-445.48 -369.06,-849.39 99.32,-322.58 317.79,-669.32 628.22,-753.82zm667.66 805.34c319.62,-1231.55 -1252.79,-1124.88 -1598.73,15.79 -167.47,552.19 187.54,966.31 761.84,840.17 411.27,-90.33 732.15,-452.39 836.89,-855.96z"/>
   <path class="fil0" d="M8731.6 11965.82c94.53,-107.99 83.73,-222.51 130.83,-380.18 -255.24,-38.21 -1024.88,-76.65 -1218.93,18.35 13.35,11.11 16.95,14.68 52.73,34.9 5.54,3.12 12.59,6.78 18.33,9.8l91.29 40.48c6.2,157.01 -264.27,1063.77 -342.45,1312.08 -91.47,290.51 -190.24,109.33 -252.59,268.6l1277.26 -10.97c94.81,-120.19 125.48,-282.21 166.25,-432.9 -218.84,38.9 -173.45,459.67 -955.9,344.54 -33.94,-197.09 99.7,-561.26 155.82,-746 158.14,0 246.29,-15.42 376.85,45.09l31.04 265.35c72.52,-38.55 50.51,-22.84 77.5,-126.41l125.03 -492.62c-179.42,17.74 -31.83,117.87 -220.99,183.64 -73.73,25.64 -258.62,34.69 -357.35,42.04l180.57 -684.48c650.2,0 564.37,9.04 664.71,308.69z"/>
   <path class="fil0" d="M13661.43 11606.2c96,89.5 158.62,15.19 155.86,178.09l-201.8 753.65c-105.12,346.6 -198.16,667.99 -616.93,666.98 -496.49,-1.2 -412.79,-443.09 -308.46,-798.12 244.5,-832.05 183.68,-673.55 474.14,-796.38l-40.9 -21.17c-139.08,-55.66 100.38,24.25 -42.34,-15.57 -100.15,-27.94 -458.97,-20.67 -558.17,6.65 -54.48,15.01 -44.31,15.28 -63.68,35.03l181.96 55.48c-22.4,419.06 -242.53,747.42 -252.12,1097.61 -11.33,413.76 362.16,608.2 778.67,511.39 500.13,-116.26 579.44,-830.13 700.69,-1282.43 125.31,-467.43 175.3,-254.01 288.04,-413.92l-494.96 22.71z"/>
   <path class="fil0" d="M9457.13 13293.35c136.17,-46.91 59,-103.09 227.78,-77.47 96.67,14.67 403.28,192.7 702.3,-15.37 305.97,-212.92 239.86,-524.61 9.32,-766.34 -84.3,-88.39 -551.2,-481.56 -326.66,-715.96 89.18,-93.1 304.11,-110.47 435.03,-28.53 173.33,108.5 68.31,270.86 162.22,408.03 100.97,-86.06 124.37,-379.08 157.3,-542.11 -156.78,39.74 -33.95,105.42 -228.1,76.45 -87.18,-13.01 -403.01,-211.56 -681.03,37.35 -584.94,523.68 924.88,1080.62 292.28,1508.78 -138.09,93.46 -321.45,77.33 -440.18,-36.52 -125.55,-120.4 -114.93,-270.11 -112.68,-469.29 -129.59,52.64 -178.9,466.19 -197.58,620.98z"/>
   <path class="fil0" d="M12191.15 11989.97c96.62,-64.37 134.58,-263.05 167.95,-412.68l-1289.88 8.38 -100.17 406.4c184.34,-87.78 41.48,-346.24 591.04,-325.36 -78.33,313.2 -157.42,574.01 -241.7,876.32 -210.93,756.64 -116.11,504.25 -397.26,701.61 126.28,62.77 578.36,43.94 702.52,5.79 -23.45,-19.26 -11.78,-14.77 -51.47,-33.29l-163.28 -41.99c-4.13,-264.9 306.56,-1204.04 388.61,-1518.02 140.09,0 267.93,9.49 376.18,57.25l17.46 275.59z"/>
   <path class="fil0" d="M16222.56 13173.46c9.82,-244.49 241.43,-969.74 334.18,-1292.63 90.99,-316.77 109.71,-132.85 248.57,-276.84 -123.02,-79.36 -496.51,-88.84 -620.84,6.39l154.47 73c10.82,123.61 -313.62,1399.36 -413.51,1471.41l-168 76.76c-2.89,-5.22 -11.36,8.17 -16.29,13.09 139.8,63.09 536.15,68.2 660.23,-13.03l-178.81 -58.15z"/>
  </g>
 </g>
</svg>
